PathFileType	4	(X/Y/Z)	5_coords_data.trc
DataRate	CameraRate	NumFrames	NumMarkers	Units	OrigDataRate	OrigDataStartFrame	OrigNumFrames
30.0	30.0	5	21	m	30.0	39	67
Frame#	Time	THUMB_TIP	THUMB_IP	THUMB_MCP	THUMB_CMC	INDEX_TIP	INDEX_DIP	INDEX_PIP	INDEX_MCP	MIDDLE_TIP	MIDDLE_DIP	MIDDLE_PIP	MIDDLE_MCP	RING_TIP	RING_DIP	RING_PIP	RING_MCP	PINKY_TIP	PINKY_DIP	PINKY_PIP	PINKY_MCP	WRIST
X1	Y1	Z1	X2	Y2	Z2	X3	Y3	Z3	X4	Y4	Z4	X5	Y5	Z5	X6	Y6	Z6	X7	Y7	Z7	X8	Y8	Z8	X9	Y9	Z9	X10	Y10	Z10	X11	Y11	Z11	X12	Y12	Z12	X13	Y13	Z13	X14	Y14	Z14	X15	Y15	Z15	X16	Y16	Z16	X17	Y17	Z17	X18	Y18	Z18	X19	Y19	Z19	X20	Y20	Z20	X21	Y21	Z21
38	1.2666666666666666	-0.01902589988708496	-0.14178799438476564	1.018239990234375	-0.024377899169921877	-0.11818900299072266	1.026949951171875	-0.04192240142822266	-0.10196600341796876	1.044780029296875	-0.04438679885864258	-0.06835649871826172	1.0513800048828126	-0.019646299362182616	-0.10722799682617187	0.9202659912109376	-0.029774799346923828	-0.10277700042724609	0.9402520141601562	-0.04021390151977539	-0.09771880340576172	0.9606179809570312	-0.050314701080322266	-0.08709300231933594	0.995166015625	-0.015573399543762207	-0.07327130126953126	0.9022329711914062	-0.024348100662231444	-0.07346250152587891	0.9255640258789063	-0.03665999984741211	-0.07180809783935548	0.9527230224609375	-0.049441001892089845	-0.06665450286865235	0.988405029296875	-0.014701000213623047	-0.04910929870605469	0.90785498046875	-0.024010799407958985	-0.04800070190429687	0.9299180297851563	-0.03588589859008789	-0.04719029998779297	0.9545079956054687	-0.04541619873046875	-0.047749198913574216	0.9896209716796875	-0.019310800552368165	-0.01573270034790039	0.9321610107421875	-0.025738199234008788	-0.02016360092163086	0.9514749755859375	-0.031752599716186526	-0.02466640090942383	0.9685809936523437	-0.03809379959106445	-0.031469100952148436	0.9932050170898438	-0.06056959915161133	-0.03740779876708984	1.0625699462890625
39	1.3	-0.018711599349975586	-0.14111900329589844	1.0173599853515625	-0.02417569923400879	-0.11776499938964843	1.026219970703125	-0.04177989959716797	-0.10184400177001954	1.0446300048828125	-0.044340900421142575	-0.06833869934082032	1.05143994140625	-0.015414999961853028	-0.10589399719238281	0.9223920288085937	-0.027185699462890626	-0.10184200286865235	0.9412160034179687	-0.03918450164794922	-0.0971614990234375	0.9608599853515625	-0.05072420120239258	-0.08715720367431641	0.995281982421875	-0.01328969955444336	-0.07340409851074219	0.9033829956054688	-0.023267599105834962	-0.07344249725341796	0.9261099853515625	-0.03675220108032227	-0.07171700286865235	0.9527520141601562	-0.04996120071411133	-0.06669930267333984	0.9885170288085937	-0.011332500457763671	-0.04973789978027344	0.9096300048828125	-0.022144100189208985	-0.04841609954833984	0.9307249755859375	-0.03546369934082031	-0.04741360092163086	0.9546389770507813	-0.04605440139770508	-0.047828800201416014	0.9897540283203125	-0.016387399673461915	-0.017703399658203126	0.9327670288085937	-0.02418199920654297	-0.021409799575805664	0.9517059936523438	-0.03120919990539551	-0.025316200256347655	0.9686790161132812	-0.038544200897216795	-0.03153720092773438	0.9932949829101563	-0.06062300109863281	-0.037432098388671876	1.0626500244140624
40	1.3333333333333333	-0.018159500122070314	-0.1401820068359375	1.0155700073242186	-0.02363909912109375	-0.11702300262451172	1.02493994140625	-0.04121080017089844	-0.10162999725341797	1.04418994140625	-0.044049999237060544	-0.06838670349121094	1.0513800048828126	-0.011185700416564942	-0.10473699951171875	0.9249429931640625	-0.024677999496459962	-0.10104399871826172	0.942677001953125	-0.038188098907470706	-0.09674250030517578	0.9613070068359375	-0.051015201568603515	-0.08736710357666015	0.9953389892578125	-0.01070359992980957	-0.07396759796142578	0.9050989990234375	-0.0219906005859375	-0.07381300354003906	0.9270640258789062	-0.036710098266601564	-0.07188890075683593	0.9529580078125	-0.050536998748779295	-0.06685019683837891	0.988406005859375	-0.006531109809875488	-0.0504124984741211	0.9124669799804688	-0.01929719924926758	-0.04889479827880859	0.932323974609375	-0.03456769943237305	-0.047699100494384764	0.9549530029296875	-0.04684700012207031	-0.047944198608398436	0.9896950073242188	-0.012904899597167969	-0.02022879981994629	0.93406201171875	-0.022414800643920898	-0.022960399627685545	0.952239013671875	-0.030761299133300782	-0.02618239974975586	0.9688380126953124	-0.03910530090332031	-0.031580600738525394	0.99335302734375	-0.06061130142211914	-0.037532501220703125	1.0627900390625
41	1.3666666666666667	-0.01709370040893555	-0.13858599853515624	1.0118099975585937	-0.022749300003051757	-0.11565200042724609	1.0221199951171875	-0.03980030059814453	-0.10108999633789062	1.0428800048828124	-0.04318349838256836	-0.0684114990234375	1.05102001953125	-0.009288100242614747	-0.10325800323486328	0.9262650146484375	-0.023599899291992188	-0.10001699829101562	0.9433159790039063	-0.03787329864501953	-0.09615959930419922	0.9615380249023437	-0.051535099029541016	-0.08751329803466797	0.995583984375	-0.009296609878540038	-0.07395649719238281	0.9066929931640625	-0.021609100341796875	-0.07375810241699218	0.9278350219726562	-0.0372869987487793	-0.07183039855957031	0.9530089721679688	-0.05158169937133789	-0.06686750030517578	0.9884970092773437	-0.002662039995193481	-0.05040399932861328	0.915833984375	-0.017163700103759765	-0.04877640151977539	0.9339959716796875	-0.034372398376464844	-0.0476353988647461	0.9553410034179688	-0.04824420166015625	-0.0479203987121582	0.98989599609375	-0.010390299797058106	-0.022545900344848633	0.935791015625	-0.021589099884033205	-0.02423509979248047	0.95281201171875	-0.031197900772094726	-0.02672480010986328	0.9687880249023437	-0.04049020004272461	-0.03138730049133301	0.9934769897460938	-0.06028979873657227	-0.03779090118408203	1.0626500244140624
42	1.4	-0.01456439971923828	-0.13569099426269532	1.008989990234375	-0.020826299667358397	-0.11350900268554688	1.0199600219726563	-0.038150901794433596	-0.10037899780273438	1.041719970703125	-0.042527198791503906	-0.06832949829101563	1.0505400390625	-0.009135319709777831	-0.10188200378417969	0.9266279907226562	-0.023693199157714843	-0.09903890228271485	0.9435479736328125	-0.038239398956298826	-0.09555390167236329	0.9616610107421875	-0.052175498962402346	-0.08753820037841797	0.9956820068359375	-0.008189570426940919	-0.07351460266113281	0.9081430053710937	-0.021419000625610352	-0.0733384017944336	0.928635009765625	-0.037944698333740236	-0.07151309967041015	0.9531890258789063	-0.05290110015869141	-0.06689859771728515	0.988635986328125	-0.000254905998706817	-0.049955898284912106	0.9187369995117187	-0.016132699966430665	-0.04830780029296875	0.93543701171875	-0.034851699829101565	-0.04726580047607422	0.9556920166015626	-0.05008190155029297	-0.04781909942626953	0.9901580200195312	-0.008911820411682128	-0.024500499725341796	0.9374940185546875	-0.021401100158691407	-0.025275800704956056	0.9533880004882812	-0.03215359878540039	-0.02710460090637207	0.9687540283203125	-0.04217050170898438	-0.03110330009460449	0.9936160278320313	-0.0602942008972168	-0.03801240158081055	1.0628800048828124
